<svg width="0" height="0" version="1.1" xmlns="http://www.w3.org/2000/svg" xmlns:xlink="http://www.w3.org/1999/xlink">
  <defs>
    <symbol fill="none" stroke="currentColor" stroke-width="2" stroke-linecap="round" stroke-linejoin="round" class="afeather afeather-award" viewBox="0 0 24 24" id="award" xmlns="http://www.w3.org/2000/svg">
      <circle cx="12" cy="8" r="7"/>
      <path d="M8.21 13.89 7 23l5-3 5 3-1.21-9.12"/>
    </symbol>

    <symbol fill="none" stroke="currentColor" stroke-width="2" stroke-linecap="round" stroke-linejoin="round" class="afeather afeather-clock" viewBox="0 0 24 24" id="clock" xmlns="http://www.w3.org/2000/svg">
      <circle cx="12" cy="12" r="10"/>
      <path d="M12 6v6l4 2"/>
    </symbol>

    <symbol fill="none" stroke="currentColor" stroke-width="2" stroke-linecap="round" stroke-linejoin="round" class="afeather afeather-users" viewBox="0 0 24 24" xmlns="http://www.w3.org/2000/svg" id="people">
      <path d="M17 21v-2a4 4 0 0 0-4-4H5a4 4 0 0 0-4 4v2"/>
      <circle cx="9" cy="7" r="4"/>
      <path d="M23 21v-2a4 4 0 0 0-3-3.87M16 3.13a4 4 0 0 1 0 7.75"/>
    </symbol>

    <symbol fill="none" stroke="currentColor" stroke-width="2" stroke-linecap="round" stroke-linejoin="round" class="afeather afeather-dollar-sign" viewBox="0 0 24 24" id="cash" xmlns="http://www.w3.org/2000/svg">
      <path d="M12 1v22M17 5H9.5a3.5 3.5 0 0 0 0 7h5a3.5 3.5 0 0 1 0 7H6"/>
    </symbol>

    <symbol fill="none" stroke="currentColor" stroke-width="2" stroke-linecap="round" stroke-linejoin="round" class="afeather afeather-gift" viewBox="0 0 24 24" id="gift" xmlns="http://www.w3.org/2000/svg">
     <path d="M20 12v10H4V12M2 7h20v5H2zM12 22V7M12 7H7.5a2.5 2.5 0 0 1 0-5C11 2 12 7 12 7zM12 7h4.5a2.5 2.5 0 0 0 0-5C13 2 12 7 12 7z"/>
    </symbol>

    <symbol xmlns="http://www.w3.org/2000/svg" fill="none" stroke="currentColor" stroke-width="2" stroke-linecap="round" stroke-linejoin="round" viewBox="0 0 24 24" id="home">
      <rect x="3" y="3" width="7" height="7"></rect>
      <rect x="14" y="3" width="7" height="7"></rect>
      <rect x="14" y="14" width="7" height="7"></rect>
      <rect x="3" y="14" width="7" height="7"></rect>
    </symbol>

    <symbol xmlns="http://www.w3.org/2000/svg" fill="none" stroke="currentColor" stroke-width="2" stroke-linecap="round" stroke-linejoin="round" viewBox="0 0 24 24" id="mail">
      <path d="M4 4h16c1.1 0 2 .9 2 2v12c0 1.1-.9 2-2 2H4c-1.1 0-2-.9-2-2V6c0-1.1.9-2 2-2z"></path>
      <polyline points="22,6 12,13 2,6"></polyline>
    </symbol>

     <symbol xmlns="http://www.w3.org/2000/svg" fill="none" stroke="currentColor" stroke-width="2" stroke-linecap="round" stroke-linejoin="round" viewBox="0 0 24 24" id="gear">
      <circle cx="12" cy="12" r="3"></circle>
      <path d="M19.4 15a1.65 1.65 0 0 0 .33 1.82l.06.06a2 2 0 0 1 0 2.83 2 2 0 0 1-2.83 0l-.06-.06a1.65 1.65 0 0 0-1.82-.33 1.65 1.65 0 0 0-1 1.51V21a2 2 0 0 1-2 2 2 2 0 0 1-2-2v-.09A1.65 1.65 0 0 0 9 19.4a1.65 1.65 0 0 0-1.82.33l-.06.06a2 2 0 0 1-2.83 0 2 2 0 0 1 0-2.83l.06-.06a1.65 1.65 0 0 0 .33-1.82 1.65 1.65 0 0 0-1.51-1H3a2 2 0 0 1-2-2 2 2 0 0 1 2-2h.09A1.65 1.65 0 0 0 4.6 9a1.65 1.65 0 0 0-.33-1.82l-.06-.06a2 2 0 0 1 0-2.83 2 2 0 0 1 2.83 0l.06.06a1.65 1.65 0 0 0 1.82.33H9a1.65 1.65 0 0 0 1-1.51V3a2 2 0 0 1 2-2 2 2 0 0 1 2 2v.09a1.65 1.65 0 0 0 1 1.51 1.65 1.65 0 0 0 1.82-.33l.06-.06a2 2 0 0 1 2.83 0 2 2 0 0 1 0 2.83l-.06.06a1.65 1.65 0 0 0-.33 1.82V9a1.65 1.65 0 0 0 1.51 1H21a2 2 0 0 1 2 2 2 2 0 0 1-2 2h-.09a1.65 1.65 0 0 0-1.51 1z"></path>
    </symbol>

    <symbol xmlns="http://www.w3.org/2000/svg" fill="none" stroke="currentColor" stroke-width="2" stroke-linecap="round" stroke-linejoin="round" viewBox="0 0 24 24" id="info">
      <circle cx="12" cy="12" r="10"></circle>
      <line x1="12" y1="16" x2="12" y2="12"></line>
      <line x1="12" y1="8" x2="12.01" y2="8"></line>
    </symbol>

    <symbol fill="none" stroke="currentColor" stroke-width="2" stroke-linecap="round" stroke-linejoin="round" class="afeather afeather-hash" viewBox="0 0 24 24" id="hash" xmlns="http://www.w3.org/2000/svg">
      <path d="M4 9h16M4 15h16M10 3L8 21M16 3l-2 18"/>
    </symbol>
  </defs>
</svg>
